<?xml version="1.0" encoding="UTF-8" standalone="no"?>
<svg
   height="24"
   viewBox="0 -960 960 960"
   width="24"
   version="1.1"
   id="svg51"
   xmlns="http://www.w3.org/2000/svg"
   xmlns:svg="http://www.w3.org/2000/svg">
  <defs
     id="defs55" />
  <path
     d="M 666.90129,-40 Q 622.80451,-40 591.40225,-71.402255 560,-102.80451 560,-146.90129 q 0,-44.09679 31.40225,-75.49904 31.40226,-31.40225 75.49904,-31.40225 15.36706,0 28.39566,3.67473 13.02859,3.67473 25.05499,11.02419 v -255.22683 q 0,-11.35826 7.68353,-19.04179 7.68353,-7.68353 19.04179,-7.68353 h 106.90129 q 11.35827,0 19.0418,7.68353 7.68353,7.68353 7.68353,19.04179 v 53.45064 q 0,11.35827 -7.68353,19.0418 -7.68353,7.68353 -19.0418,7.68353 h -80.17597 v 267.25323 q 0,44.09678 -31.40225,75.499035 Q 710.99808,-40 666.90129,-40 Z"
     id="path49"
     style="stroke-width:0.668133" />
  <path
     d="m 480,-88.5 q -17,0 -28.5,-11.5 -11.5,-11.5 -11.5,-28.5 v -607 l -156,155 q -11,11 -27.5,11.5 -16.5,0.5 -28.5,-11.5 -11,-11 -11,-28 0,-17 11,-28 l 224,-224 q 6,-6 13,-8.5 7,-2.5 15,-2.5 8,0 15,2.5 7,2.5 13,8.5 l 224,224 q 11,11 11,27.5 0,16.5 -11,28.5 -12,12 -28.5,12 -16.5,0 -28.5,-12 l -155,-155 v 607 q 0,17 -11.5,28.5 -11.5,11.5 -28.5,11.5 z"
     id="path737" />
</svg>
