<?xml version="1.0" encoding="UTF-8" standalone="no"?>
<svg
   height="24"
   viewBox="0 -960 960 960"
   width="24"
   version="1.1"
   id="svg51"
   xmlns="http://www.w3.org/2000/svg"
   xmlns:svg="http://www.w3.org/2000/svg">
  <defs
     id="defs55" />
  <path
     id="path49"
     style="stroke-width:0.0167033"
     d="M 18.677734 10.972656 C 18.48843 10.972656 18.329231 11.037957 18.201172 11.166016 C 18.073113 11.294074 18.009766 11.453274 18.009766 11.642578 L 18.009766 14.248047 C 18.141767 14.297594 18.290877 14.302596 18.400391 14.412109 C 18.521424 14.544146 18.540902 14.718088 18.582031 14.882812 C 18.597727 14.916904 18.611322 14.952565 18.623047 14.988281 C 18.629787 15.038253 18.675781 15.072271 18.675781 15.125 C 18.675781 15.138333 18.66254 15.145086 18.662109 15.158203 C 18.67004 15.212095 18.675781 15.26712 18.675781 15.324219 C 18.675781 15.599219 18.583724 15.828385 18.400391 16.011719 L 18.009766 16.402344 L 18.009766 18.021484 C 17.809326 17.898993 17.599956 17.807339 17.382812 17.746094 C 17.188932 17.69141 16.972999 17.669921 16.748047 17.664062 L 14.013672 20.398438 C 14.031075 21.101039 14.279809 21.709496 14.785156 22.214844 C 15.308527 22.738215 15.936929 23 16.671875 23 C 17.406822 23 18.037176 22.738215 18.560547 22.214844 C 19.083918 21.691473 19.345703 21.063071 19.345703 20.328125 L 19.345703 13.646484 L 21.349609 13.646484 C 21.538914 13.646484 21.698113 13.581184 21.826172 13.453125 C 21.954231 13.325066 22.017578 13.16782 22.017578 12.978516 L 22.017578 11.642578 C 22.017578 11.453274 21.954231 11.294074 21.826172 11.166016 C 21.698113 11.037957 21.538914 10.972656 21.349609 10.972656 L 18.677734 10.972656 z "
     transform="matrix(40,0,0,40,0,-960)" />
  <path
     d="m 480,-871.5 q -17,0 -28.5,11.5 -11.5,11.5 -11.5,28.5 v 607 l -156,-155 q -11,-11 -27.5,-11.5 -16.5,-0.5 -28.5,11.5 -11,11 -11,28 0,17 11,28 l 224,224 q 6,6 13,8.5 7,2.5 15,2.5 8,0 15,-2.5 7,-2.5 13,-8.5 l 224,-224 q 11,-11 11,-27.5 0,-16.5 -11,-28.5 -12,-12 -28.5,-12 -16.5,0 -28.5,12 l -155,155 v -607 q 0,-17 -11.5,-28.5 -11.5,-11.5 -28.5,-11.5 z"
     id="path737" />
</svg>
